HIERARCHY
ROOT root
{
	OFFSET 0.000000 0.000000 0.000000
	CHANNELS 6 Xposition Yposition Zposition Zrotation Yrotation Xrotation
	JOINT lhip
	{
		OFFSET 0.058581 -0.082280 -0.017664
		CHANNELS 3 Zrotation Yrotation Xrotation
		JOINT lknee
		{
			OFFSET 0.043451 -0.386469 0.008037
			CHANNELS 3 Zrotation Yrotation Xrotation
			JOINT lankle
			{
				OFFSET -0.014790 -0.426874 -0.037428
				CHANNELS 3 Zrotation Yrotation Xrotation
				JOINT ltoe
				{
					OFFSET 0.041054 -0.060286 0.122042
					CHANNELS 3 Zrotation Yrotation Xrotation
					End Site
					{
						OFFSET 0.000000 0.000000 0.000000
					}
				}
			}
		}
	}
	JOINT rhip
	{
		OFFSET -0.060310 -0.090513 -0.013543
		CHANNELS 3 Zrotation Yrotation Xrotation
		JOINT rknee
		{
			OFFSET -0.043257 -0.383688 -0.004843
			CHANNELS 3 Zrotation Yrotation Xrotation
			JOINT rankle
			{
				OFFSET 0.019056 -0.420046 -0.034562
				CHANNELS 3 Zrotation Yrotation Xrotation
				JOINT rtoe
				{
					OFFSET -0.034840 -0.062106 0.130323
					CHANNELS 3 Zrotation Yrotation Xrotation
					End Site
					{
						OFFSET 0.000000 0.000000 0.000000
					}
				}
			}
		}
	}
	JOINT lowerback
	{
		OFFSET 0.004439 0.124404 -0.038385
		CHANNELS 3 Zrotation Yrotation Xrotation
		JOINT upperback
		{
			OFFSET 0.004488 0.137956 0.026820
			CHANNELS 3 Zrotation Yrotation Xrotation
			JOINT chest
			{
				OFFSET -0.002265 0.056032 0.002855
				CHANNELS 3 Zrotation Yrotation Xrotation
				JOINT lowerneck
				{
					OFFSET -0.013390 0.211636 -0.033468
					CHANNELS 3 Zrotation Yrotation Xrotation
					JOINT upperneck
					{
						OFFSET 0.010113 0.088937 0.050410
						CHANNELS 3 Zrotation Yrotation Xrotation
						End Site
						{
							OFFSET 0.000000 0.000000 0.000000
						}
					}
				}
				JOINT lclavicle
				{
					OFFSET 0.071702 0.114000 -0.018898
					CHANNELS 3 Zrotation Yrotation Xrotation
					JOINT lshoulder
					{
						OFFSET 0.122921 0.045205 -0.019046
						CHANNELS 3 Zrotation Yrotation Xrotation
						JOINT lelbow
						{
							OFFSET 0.255332 -0.015649 -0.022946
							CHANNELS 3 Zrotation Yrotation Xrotation
							JOINT lwrist
							{
								OFFSET 0.265709 0.012698 -0.007375
								CHANNELS 3 Zrotation Yrotation Xrotation
								End Site
								{
									OFFSET 0.000000 0.000000 0.000000
								}
							}
						}
					}
				}
				JOINT rclavicle
				{
					OFFSET -0.082954 0.112472 -0.023707
					CHANNELS 3 Zrotation Yrotation Xrotation
					JOINT rshoulder
					{
						OFFSET -0.113228 0.046853 -0.008472
						CHANNELS 3 Zrotation Yrotation Xrotation
						JOINT relbow
						{
							OFFSET -0.260127 -0.014369 -0.031269
							CHANNELS 3 Zrotation Yrotation Xrotation
							JOINT rwrist
							{
								OFFSET -0.269108 0.006794 -0.006027
								CHANNELS 3 Zrotation Yrotation Xrotation
								End Site
								{
									OFFSET 0.000000 0.000000 0.000000
								}
							}
						}
					}
				}
			}
		}
	}
}
MOTION
Frames: 10
Frame Time: 0.033333
0.629043 0.719287 0.942782 -98.238851 -0.763926 79.986359 -0.063527 -9.785665 -18.015845 -8.471790 6.755607 30.736949 8.853616 17.740074 -15.812045 0.000000 -0.000000 0.000000 -17.093532 8.242318 1.595524 5.973016 11.484450 109.580332 8.695792 -21.015206 25.716052 0.000000 -0.000000 0.000000 -4.057113 8.376549 14.162714 6.586429 0.269239 8.555554 0.688988 2.714526 2.276603 3.018088 -9.811436 16.188091 0.435230 -2.813724 4.288032 -16.764712 5.013719 7.216403 -29.655529 17.947550 0.954386 -3.424670 -40.204532 8.841032 -0.992845 -16.655870 5.383240 20.280447 5.971359 -1.945969 33.522923 1.362037 8.637001 -18.766170 36.923536 -20.716241 -1.989429 4.571598 13.734348 
0.614453 0.710733 0.948265 -95.777677 -0.164243 76.020821 -2.784674 -7.856042 -11.471646 -8.118784 2.202250 28.939531 8.359452 17.759857 -16.081637 0.000000 -0.000000 0.000000 -14.776293 10.401171 -13.268200 4.026259 7.722138 106.770459 5.557527 -17.385471 21.080484 0.000000 -0.000000 0.000000 -2.806718 2.618498 21.714640 5.340462 0.420503 6.119633 0.406655 0.852104 4.191417 1.738736 -7.131329 16.738473 0.103146 -1.437357 3.395844 -19.870170 5.110422 5.592307 -33.724143 12.240804 0.982042 3.227936 -41.555211 3.168293 -2.380144 -15.666420 6.270295 21.858023 2.758598 -2.059638 35.841482 -1.905546 8.631403 -17.749936 35.757364 -17.926735 -0.278480 5.172730 12.483522 
0.604249 0.709124 0.954195 -93.092923 1.782048 71.646494 -2.767844 -5.339161 -5.793028 -8.222742 -2.600136 28.864880 9.074363 17.336500 -15.227036 0.000000 -0.000000 0.000000 -11.632667 8.090567 -29.022906 3.113007 2.645794 95.529250 -16.247460 -16.033917 12.778526 0.000000 -0.000000 0.000000 -1.712279 -2.297597 28.823970 4.106608 -0.675487 5.316877 1.007761 -1.702109 6.674769 -1.920757 -4.672733 14.277245 1.852877 1.759321 4.113271 -21.743751 3.681367 3.044153 -37.750424 6.827550 1.227402 9.776641 -44.058436 -2.554109 -1.011652 -13.711346 3.323505 21.979797 1.102748 -0.935104 39.012366 -5.453619 7.412856 -17.726549 35.697675 -14.497258 4.863971 2.935586 10.450615 
0.599984 0.710117 0.958086 -91.220227 4.024573 70.314179 -1.487991 -4.533270 -4.295076 -7.124154 -4.556675 29.522275 5.825882 15.392651 -16.926164 0.000000 -0.000000 0.000000 -11.180587 7.371683 -39.158115 -1.799180 -5.586900 68.710014 -11.130193 -12.117780 -12.766850 0.000000 -0.000000 0.000000 -0.271524 -4.975777 33.120455 3.559619 -2.538681 6.029464 1.614613 -3.737750 6.452534 -2.410782 -0.106107 12.454972 1.821014 1.296477 4.045382 -22.018386 2.456122 0.227905 -41.931997 -0.454586 2.374135 18.334964 -45.580447 -11.588190 -3.523936 -13.021911 3.355491 22.690601 -2.082425 -0.798057 40.961339 -8.942253 6.398885 -16.986505 34.753119 -10.474434 7.392284 2.850798 12.320695 
0.597611 0.710159 0.962173 -91.468943 5.954259 70.640658 0.559343 -2.016750 -4.620800 -6.634974 -6.290116 29.968427 4.052182 13.810941 -18.081522 0.000000 -0.000000 0.000000 -8.418144 7.204668 -47.200478 -0.780996 -9.053020 38.951091 -6.587493 -11.332987 -27.089074 0.000000 -0.000000 0.000000 0.744694 -7.738261 36.615686 2.866221 -2.122934 3.862029 1.771148 -4.890623 7.631129 -2.970626 3.711970 10.919997 1.326864 1.195793 3.593843 -22.068007 3.415756 -0.852080 -44.898845 -9.941734 3.295052 25.117176 -49.432404 -15.253642 -0.039457 -12.424096 1.306461 22.966414 -6.155643 0.273158 42.906170 -10.974473 5.393336 -16.008063 33.627172 -5.369096 6.113442 3.525587 10.386337 
0.590156 0.711605 0.965591 -90.468257 6.981117 70.088021 1.661078 -0.215367 -3.866669 -6.827956 -7.706222 31.053517 4.727214 12.383639 -18.820147 0.000000 -0.000000 0.000000 -5.207393 6.980469 -54.474045 0.636995 -3.878098 22.050667 -2.898003 -11.170707 -8.799817 0.000000 -0.000000 0.000000 -0.029790 -9.998917 39.402199 2.637357 -1.960325 2.613669 2.173500 -5.905807 9.320742 -5.368387 4.488148 9.234568 2.393845 3.679324 2.648127 -21.967436 3.509135 -0.282216 -46.494389 -17.926312 2.931002 32.056282 -55.826374 -18.056350 3.075240 -14.057663 -1.672522 22.445423 -8.490783 2.133547 45.831223 -12.884052 5.224081 -16.724720 32.209495 -4.555860 6.051282 3.905189 7.669439 
0.578703 0.712399 0.969153 -86.530647 8.286110 67.965345 1.425411 -1.657448 -0.574979 -6.741251 -10.144767 31.483234 3.666129 12.149776 -20.274415 0.000000 -0.000000 0.000000 -9.704570 6.876070 -59.821456 -1.025207 -11.983003 20.390407 9.803506 -9.258137 -8.183547 0.000000 -0.000000 0.000000 -0.202194 -12.502349 42.711086 2.832822 -2.944379 3.197224 2.293851 -6.619380 9.031968 -5.357802 5.802298 8.419024 2.669730 3.139746 2.362042 -20.706190 1.542592 -0.927922 -49.027260 -22.619006 5.643398 41.569748 -60.547397 -26.049391 0.881084 -14.932200 -0.534713 22.092842 -9.557343 1.759759 48.934453 -17.129625 5.773958 -18.820323 30.991278 -6.905305 7.742369 3.077040 9.541355 
0.566495 0.713917 0.973745 -84.512221 9.450348 66.104749 1.428546 -2.967159 2.960701 -6.565794 -12.329664 31.124685 3.784512 13.351441 -20.739656 0.000000 -0.000000 0.000000 -13.179087 7.711853 -67.366408 -3.837829 -16.147770 35.865175 8.606386 -12.442568 -9.257706 0.000000 -0.000000 0.000000 -0.070329 -14.242400 44.970326 3.062441 -1.965667 2.545765 1.867229 -7.485737 9.353267 -4.984304 5.939973 8.261183 2.325827 2.742001 3.427949 -20.051989 0.026617 -1.081017 -51.439871 -26.037373 8.198814 45.099855 -64.147373 -26.310367 1.077434 -15.832294 0.856766 21.482484 -10.623825 1.860346 51.554183 -19.857289 5.992547 -19.310567 30.485006 -6.477797 5.869823 3.991883 9.082172 
0.552634 0.714820 0.980512 -83.958870 10.222478 65.139562 2.170580 -2.673160 6.032967 -6.250757 -13.695109 29.644829 3.897401 13.462346 -21.162805 0.000000 -0.000000 0.000000 -13.879783 9.174207 -74.210321 -4.361664 -12.635717 52.019270 8.301822 -10.826524 -10.264668 0.000000 -0.000000 0.000000 -0.814244 -15.548522 44.640673 3.449562 -0.739603 4.035467 1.686111 -7.280554 8.838292 -4.717417 6.201975 9.017536 1.992066 2.665665 4.374061 -20.549030 -1.452403 -1.167498 -53.999756 -26.840170 10.506655 45.900148 -65.787636 -25.844781 1.056512 -16.864608 2.361872 21.576297 -10.260660 2.426070 52.494182 -20.641480 5.669484 -18.938654 30.514089 -6.082942 6.356594 4.431352 8.776461 
0.543116 0.713499 0.989092 -82.279580 11.157846 65.991756 2.546540 -3.212591 7.278543 -5.557639 -15.176455 27.422409 3.907455 13.389114 -20.584221 0.000000 -0.000000 0.000000 -15.452787 8.821919 -76.935451 -6.745489 -14.834613 60.218957 7.611219 -11.873682 -11.396896 0.000000 -0.000000 0.000000 -0.402152 -16.863849 44.083859 3.890778 -0.444814 3.189973 1.821018 -7.384317 8.690385 -4.419654 6.009100 9.504847 1.586964 2.769699 5.067718 -21.019850 -1.925783 -0.405333 -57.682152 -26.893634 12.502317 44.291892 -66.154519 -23.100438 -1.148048 -14.889077 3.494647 21.566209 -9.784208 2.740654 52.516118 -19.707492 5.702364 -18.502312 31.323156 -5.179030 6.628820 4.352026 9.166986 
